<?xml version="1.0" standalone="no"?>
<!DOCTYPE svg PUBLIC "-//W3C//DTD SVG 20010904//EN"
 "http://www.w3.org/TR/2001/REC-SVG-20010904/DTD/svg10.dtd">
<svg version="1.0" xmlns="http://www.w3.org/2000/svg"
 width="360.000000pt" height="360.000000pt" viewBox="0 0 360.000000 360.000000"
 preserveAspectRatio="xMidYMid meet">

<g transform="translate(0.000000,360.000000) scale(0.100000,-0.100000)"
fill="#000000" stroke="none">
<path d="M1832 2693 c-71 -35 -162 -164 -228 -325 -36 -86 -36 -86 -78 -92
-64 -10 -211 9 -347 45 -207 54 -326 42 -406 -42 -35 -38 -63 -95 -63 -132 0
-25 34 -77 51 -77 5 0 9 12 9 27 0 39 76 108 141 128 66 19 93 19 244 -1 73
-9 173 -14 253 -12 151 3 143 10 117 -89 -8 -32 -21 -98 -27 -147 l-12 -88
-74 -85 c-70 -80 -122 -123 -149 -123 -9 0 -13 17 -13 50 0 28 4 50 9 50 6 0
37 25 70 56 103 95 141 218 88 280 -19 22 -28 25 -54 20 -51 -12 -117 -60
-151 -112 -33 -49 -71 -155 -73 -203 -3 -58 -17 33 -18 116 -1 76 -3 83 -27
102 -36 28 -44 27 -86 -16 -40 -42 -79 -116 -158 -300 -28 -67 -61 -130 -72
-140 -20 -18 -20 -18 -13 27 4 25 18 90 31 145 31 128 30 155 -2 178 -19 15
-28 16 -39 7 -8 -6 -71 -97 -140 -201 -69 -104 -130 -189 -134 -189 -5 0 -6
12 -4 28 19 118 51 262 89 401 56 202 67 270 54 337 -19 93 -110 169 -110 92
0 -18 -24 -104 -54 -193 -77 -227 -101 -354 -101 -535 1 -131 3 -149 23 -188
28 -53 80 -82 114 -63 28 14 87 104 143 216 l41 81 0 -81 c-1 -92 13 -124 65
-151 27 -14 35 -14 56 -3 33 18 76 81 119 177 78 171 108 232 115 232 3 0 9
-21 12 -46 5 -48 34 -89 74 -104 12 -5 24 -21 28 -40 8 -38 62 -96 97 -105 51
-13 114 34 215 160 l32 40 1 -33 c1 -89 51 -182 98 -182 31 0 77 44 118 112
l37 61 15 -29 c52 -103 113 -96 206 25 47 61 66 74 66 46 0 -14 74 -75 90 -75
17 0 82 79 112 136 24 46 36 60 45 53 6 -6 24 -14 40 -18 27 -7 28 -11 34 -81
5 -64 9 -76 33 -97 16 -13 33 -22 40 -20 6 2 14 31 18 64 15 134 83 285 123
270 18 -8 18 -14 0 -97 -13 -58 -12 -66 2 -77 19 -14 33 -8 33 14 0 23 57 131
92 176 17 21 43 44 59 52 27 15 69 20 69 10 0 -3 -27 -59 -60 -125 -68 -136
-90 -212 -90 -318 0 -110 36 -172 99 -172 32 0 93 64 149 156 l43 71 34 -34
c34 -34 34 -34 66 -18 35 18 87 72 151 153 31 40 38 56 29 65 -8 8 -15 5 -28
-13 -30 -44 -147 -158 -169 -164 -26 -8 -32 5 -26 59 3 38 7 43 53 63 58 27
98 76 115 142 32 123 -50 175 -139 88 -52 -50 -85 -130 -96 -229 -6 -56 -15
-78 -63 -155 -61 -97 -90 -128 -127 -139 -23 -7 -24 -6 -19 46 4 50 19 91 112
309 43 103 49 182 16 236 -26 41 -50 49 -97 33 -45 -14 -126 -88 -143 -130
l-13 -30 -18 31 c-32 51 -79 36 -133 -44 l-25 -37 6 89 c4 67 3 91 -7 97 -19
12 -57 -36 -71 -88 -16 -60 -32 -95 -35 -77 -1 8 -5 32 -9 53 -3 21 -20 53
-37 72 -25 29 -37 35 -70 35 -48 0 -83 -18 -124 -62 -44 -47 -62 -80 -69 -124
-13 -78 -27 -104 -81 -154 -49 -44 -97 -70 -109 -59 -7 8 44 187 65 230 39 78
68 109 101 109 37 0 37 14 -1 52 -27 26 -36 30 -70 25 -84 -11 -148 -99 -176
-244 -11 -59 -24 -90 -61 -145 -48 -71 -85 -108 -109 -108 -27 0 -12 221 31
460 22 116 22 117 53 125 46 11 127 63 176 111 101 101 145 266 87 328 -28 30
-53 32 -99 9z m96 -72 c4 -70 -31 -143 -103 -215 -42 -41 -140 -106 -161 -106
-7 0 8 51 34 115 58 142 157 270 205 263 19 -3 22 -10 25 -57z m-1058 -321
c-8 -5 -19 -10 -25 -10 -5 0 -3 5 5 10 8 5 20 10 25 10 6 0 3 -5 -5 -10z m540
-237 c0 -54 -39 -130 -99 -193 l-52 -55 7 45 c18 122 79 240 125 240 15 0 19
-7 19 -37z m1758 -27 c2 -26 -4 -50 -23 -82 -26 -44 -99 -103 -112 -91 -17 18
53 176 89 201 31 22 42 15 46 -28z m-892 2 c-9 -12 -16 -29 -16 -37 0 -30
-109 -181 -131 -181 -10 0 8 63 36 125 26 58 79 115 107 115 18 0 18 -2 4 -22z"/>
<path d="M2500 1409 c-209 -100 -498 -158 -729 -146 -132 7 -285 33 -481 82
-348 87 -521 94 -650 27 -79 -41 -127 -120 -83 -136 11 -4 20 0 27 11 43 80
151 120 299 110 128 -10 229 -34 472 -115 321 -107 412 -126 625 -126 136 -1
189 3 240 17 75 20 204 80 308 144 78 49 89 67 78 128 -9 44 -21 44 -106 4z
m-425 -170 c-16 -6 -84 -12 -150 -14 l-120 -4 114 9 c62 5 119 11 125 14 6 2
22 4 36 4 23 0 23 0 -5 -9z m28 -46 c-7 -2 -19 -2 -25 0 -7 3 -2 5 12 5 14 0
19 -2 13 -5z m30 -40 c-7 -2 -19 -2 -25 0 -7 3 -2 5 12 5 14 0 19 -2 13 -5z
m4 -19 c-3 -3 -12 -4 -19 -1 -8 3 -5 6 6 6 11 1 17 -2 13 -5z m-74 -11 c-13
-2 -33 -2 -45 0 -13 2 -3 4 22 4 25 0 35 -2 23 -4z"/>
</g>
</svg>
